<svg width="24" height="22" viewBox="0 0 24 22" fill="none" xmlns="http://www.w3.org/2000/svg">
<path d="M12.0122 8.68516V11.0185M12.0122 15.6852V15.6968M3.84544 20.3518H20.1788C20.5595 20.3492 20.9337 20.2534 21.2689 20.0729C21.6041 19.8923 21.89 19.6325 22.1017 19.3161C22.3134 18.9997 22.4445 18.6363 22.4835 18.2576C22.5225 17.8789 22.4682 17.4964 22.3254 17.1435L14.0421 2.85185C13.8403 2.48714 13.5445 2.18315 13.1855 1.97146C12.8264 1.75978 12.4172 1.64813 12.0004 1.64813C11.5836 1.64813 11.1744 1.75978 10.8154 1.97146C10.4563 2.18315 10.1606 2.48714 9.95877 2.85185L1.67544 17.1435C1.53537 17.4884 1.47983 17.8617 1.51345 18.2324C1.54706 18.603 1.66887 18.9603 1.8687 19.2743C2.06852 19.5883 2.34057 19.85 2.66212 20.0374C2.98367 20.2249 3.3454 20.3327 3.7171 20.3518" stroke="#EB0237" stroke-width="1.8" stroke-linecap="round" stroke-linejoin="round"/>
</svg>
