<svg width="26" height="26" viewBox="0 0 26 26" fill="none" xmlns="http://www.w3.org/2000/svg">
<path d="M13.0848 2.4375C7.89186 2.4375 3.62286 6.40576 3.20661 11.4653H2.16604C1.83683 11.4653 1.54016 11.6639 1.41478 11.9683C1.28939 12.2727 1.36008 12.6227 1.59378 12.8546L3.41357 14.6601C3.73035 14.9744 4.24132 14.9744 4.5581 14.6601L6.37789 12.8546C6.61159 12.6227 6.68228 12.2727 6.55689 11.9683C6.43151 11.6639 6.13484 11.4653 5.80563 11.4653H4.83838C5.24974 7.31431 8.77954 4.0625 13.0848 4.0625C16.0851 4.0625 18.7114 5.64249 20.1662 8.00886C20.4012 8.39113 20.9016 8.51051 21.2839 8.2755C21.6662 8.04049 21.7856 7.54009 21.5506 7.15782C19.8103 4.32713 16.6689 2.4375 13.0848 2.4375Z" fill="#787878"/>
<path opacity="0.5" d="M22.5777 11.3388C22.2612 11.0259 21.7519 11.0259 21.4353 11.3388L19.6086 13.1443C19.3743 13.376 19.303 13.7262 19.4282 14.0309C19.5534 14.3357 19.8503 14.5347 20.1798 14.5347H21.1538C20.7408 18.6834 17.1987 21.9375 12.8727 21.9375C9.85837 21.9375 7.22112 20.3561 5.76088 17.99C5.52522 17.6081 5.02462 17.4896 4.64275 17.7252C4.26088 17.9609 4.14235 18.4615 4.37801 18.8434C6.12501 21.6742 9.27749 23.5625 12.8727 23.5625C18.0813 23.5625 22.3679 19.5967 22.7856 14.5347H23.8333C24.1628 14.5347 24.4596 14.3357 24.5848 14.0309C24.71 13.7262 24.6388 13.376 24.4044 13.1443L22.5777 11.3388Z" fill="#787878"/>
</svg>
